<?xml version="1.0" encoding="utf-8"?>
<svg version="1.1" id="Layer_1" xmlns="http://www.w3.org/2000/svg" xmlns:xlink="http://www.w3.org/1999/xlink" x="0px" y="0px" viewBox="0 0 16 16" style="enable-background:new 0 0 16 16;" xml:space="preserve">
<g>
	<g transform="translate(0.000000,512.000000) scale(0.100000,-0.100000)">
		<path d="M72.3,5119.8c-27.7-2.9-52-19.8-64.2-44.6c-2.9-5.9-4.3-9.6-5.8-15.7c-1.9-7.5-2.3-11.1-2.3-19.6c0-8.5,0.4-12.1,2.3-19.6 c1.5-6,2.9-9.8,5.8-15.7c7.7-15.8,20.8-28.8,36.6-36.6c5.7-2.8,10.2-4.4,16-5.9c7.3-1.8,10.9-2.2,19.3-2.2 c8.5,0,12.1,0.4,19.6,2.3c6,1.5,9.8,2.9,15.7,5.8c15.8,7.8,28.8,20.8,36.6,36.6c2.9,5.9,4.3,9.6,5.8,15.7 c1.9,7.5,2.3,11.1,2.3,19.6c0,8.3-0.4,12-2.2,19.3c-4.2,16.8-13.9,32-27.5,43c-6.1,5-15.4,10.3-22.9,13 c-4.1,1.5-11.6,3.4-16.2,4.1C87,5120,76.4,5120.2,72.3,5119.8z M86.2,5079c3.2-1.1,5.5-2.5,7.9-4.9c6.2-6.2,7.6-14.9,3.8-22.7 c-1.4-2.9-3.3-5.2-5.6-7.1c-0.9-0.7-1.7-1.5-1.7-1.7c0-0.3,9-41.2,9.3-42.2c0.2-0.5-0.9-0.6-19.9-0.6s-20.1,0-19.9,0.6 c0.3,1,9.3,41.9,9.3,42.3c0,0.2-0.8,0.9-1.7,1.6c-3.2,2.5-6,6.9-7.1,11.2c-2.7,10.4,4.4,21.6,15.1,24 C78.7,5080.2,83.4,5080,86.2,5079z"/>
	</g>
</g>
</svg>
