<?xml version="1.0" encoding="utf-8"?>
<!-- Generator: Adobe Illustrator 21.0.2, SVG Export Plug-In . SVG Version: 6.00 Build 0)  -->
<svg version="1.1" id="Layer_1" xmlns="http://www.w3.org/2000/svg" xmlns:xlink="http://www.w3.org/1999/xlink" x="0px" y="0px"
     viewBox="0 0 24 24.1" style="enable-background:new 0 0 24 24.1;" xml:space="preserve">
<style type="text/css">
    .st0{enable-background:new    ;}
</style>
<g>
    <path d="M22,14.5h-2c-0.3,0-0.4,0.1-0.4,0.4V19H4.4v-4.1c0-0.3-0.1-0.4-0.4-0.4H2c-0.3,0-0.5,0.1-0.5,0.4v3.5c0,0.3,0,0.8,0,1v2
        c0,0.3,0.2,0.5,0.5,0.5h2c0.3,0,0.8,0,1,0h14c0.3,0,0.8,0,1,0h2c0.3,0,0.5-0.2,0.5-0.5v-2c0-0.3,0-0.8,0-1v-3.5
        C22.5,14.7,22.3,14.5,22,14.5z"/>
    <path d="M10.4,15.2c0,0.3,0.3,0.6,0.6,0.6h2c0.3,0,0.6-0.3,0.6-0.6V9.7H18l-6-7.5L6,9.7h4.4V15.2z"/>
</g>
</svg>