<?xml version="1.0" encoding="utf-8"?>
<svg version="1.1" id="Capa_1" xmlns="http://www.w3.org/2000/svg" xmlns:xlink="http://www.w3.org/1999/xlink" x="0px" y="0px" viewBox="0 0 16 16" style="enable-background:new 0 0 16 16;" xml:space="preserve">
<g>
	<g>
		<g stroke="black">
			<g>
				<path stroke-width="1" d="M3.5,14.1c-1.9,0-3.5-1.6-3.5-3.5s1.6-3.5,3.5-3.5c1.9,0,3.5,1.6,3.5,3.5C6.9,12.6,5.4,14.1,3.5,14.1z M3.5,7.9 c-1.5,0-2.8,1.2-2.8,2.8c0,1.5,1.2,2.8,2.8,2.8c1.5,0,2.8-1.2,2.8-2.8C6.2,9.2,5,7.9,3.5,7.9z"/>
				<path stroke-width="1" d="M12.5,14.1c-1.9,0-3.5-1.6-3.5-3.5s1.6-3.5,3.5-3.5S16,8.8,16,10.7C16,12.6,14.4,14.1,12.5,14.1z M12.5,7.9 c-1.5,0-2.8,1.2-2.8,2.8c0,1.5,1.2,2.8,2.8,2.8s2.8-1.2,2.8-2.8C15.3,9.2,14.1,7.9,12.5,7.9z"/>
				<g>
					<path stroke-width="1" d="M0.7,9.6c0,0-0.1,0-0.1,0C0.4,9.5,0.3,9.3,0.3,9.2L2.1,4c0.1-0.4,0.4-0.7,0.8-0.9C3.3,2.9,3.8,2.9,4.3,3 c0.2,0,0.3,0.2,0.3,0.4c0,0.2-0.2,0.3-0.4,0.3C3.8,3.6,3.5,3.6,3.2,3.7C3,3.8,2.8,4,2.8,4.2l0,0L1,9.4C0.9,9.5,0.8,9.6,0.7,9.6
						z"/>
					<path stroke-width="1" d="M15.3,9.6c-0.1,0-0.3-0.1-0.3-0.2l-1.8-5.2c0-0.2-0.2-0.4-0.4-0.5c-0.3-0.1-0.6-0.1-0.9-0.1c-0.2,0-0.4-0.1-0.4-0.3 c0-0.2,0.1-0.4,0.3-0.4c0.5-0.1,1-0.1,1.4,0.1c0.4,0.2,0.7,0.5,0.8,0.9l1.7,5.1c0.1,0.2,0,0.4-0.2,0.4
						C15.4,9.6,15.3,9.6,15.3,9.6z"/>
				</g>
			</g>
			<path stroke-width="1" d="M9.4,11c-0.1,0-0.1,0-0.2,0c0,0-0.5-0.3-1.3-0.3c-0.8,0-1.2,0.3-1.2,0.3c-0.2,0.1-0.4,0-0.5-0.1c-0.1-0.2,0-0.4,0.1-0.5 C6.4,10.4,7,10,8,10c0.9,0,1.6,0.3,1.6,0.3c0.2,0.1,0.2,0.3,0.2,0.5C9.7,11,9.6,11,9.4,11z"/>
		</g>
	</g>
</g>
</svg>
